<svg class="typst-doc" viewBox="0 0 82.63703305156272 84.00613372673259" width="82.63703305156272pt" height="84.00613372673259pt" xmlns="http://www.w3.org/2000/svg" xmlns:xlink="http://www.w3.org/1999/xlink" xmlns:h5="http://www.w3.org/1999/xhtml">
    <g>
        <g transform="translate(2 2)">
            <g class="typst-group">
                <g>
                    <g transform="translate(0 0)">
                        <path class="typst-shape" fill="#2cc9d7" fill-rule="nonzero" stroke="#202a2c" stroke-width="1.87" stroke-linecap="butt" stroke-linejoin="miter" stroke-miterlimit="4" d="M 78.63703 29.650305 C 73.441696 10.261039 54.68047 -2.2748117 34.778954 0.34527242 C 34.778954 0.34527242 34.778954 0.34527242 34.778954 0.34527242 C 14.877437 2.9653566 0.000000000000021316282 19.929821 0 40.003067 C 0 40.003067 0 40.003067 0 40.003067 C -0.000000000000014210855 60.076313 14.877437 77.04078 34.778954 79.66086 C 34.778954 79.66086 34.778954 79.66086 34.778954 79.66086 C 54.68047 82.280945 73.441696 69.745094 78.63703 50.355827 C 78.63703 50.355827 78.63703 50.355827 78.63703 50.355827 C 78.63703 50.355827 78.63703 50.355827 78.63703 50.355827 C 78.63703 50.355827 62.216293 45.955906 62.216293 45.955906 C 62.216293 45.955906 62.216293 45.955906 62.216293 45.955906 C 60.4201 52.659386 54.345387 57.32068 47.40543 57.32068 C 47.40543 57.32068 47.40543 57.32068 47.40543 57.32068 C 47.40543 57.32068 41.2721 57.32068 41.2721 57.32068 C 41.2721 57.32068 41.2721 57.32068 41.2721 57.32068 C 40.425262 57.32068 39.738766 58.007175 39.738766 58.85401 C 39.738766 58.85401 39.738766 58.85401 39.738766 58.85401 C 39.738766 59.700848 39.05227 60.387344 38.205433 60.387344 C 38.205433 60.387344 38.205433 60.387344 38.205433 60.387344 C 38.205433 60.387344 32.072098 60.387344 32.072098 60.387344 C 32.072098 60.387344 32.072098 60.387344 32.072098 60.387344 C 31.225262 60.387344 30.538765 59.700848 30.538765 58.85401 C 30.538765 58.85401 30.538765 58.85401 30.538765 58.85401 C 30.538765 58.85401 30.538765 49.654015 30.538765 49.654015 C 30.538765 49.654015 16.738764 49.654015 16.738764 49.654015 C 16.738764 49.654015 16.738764 49.654015 16.738764 49.654015 C 15.917054 48.230766 15.917054 46.477257 16.738764 45.054012 C 16.738764 45.054012 16.738764 45.054012 16.738764 45.054012 C 16.738764 45.054012 30.538765 45.054012 30.538765 45.054012 C 30.538765 45.054012 30.538765 35.28668 30.538765 35.28668 C 30.538765 35.28668 16.738764 35.28668 16.738764 35.28668 C 16.738764 35.28668 16.738764 35.28668 16.738764 35.28668 C 15.917054 33.863434 15.917054 32.109924 16.738764 30.68668 C 16.738764 30.68668 16.738764 30.68668 16.738764 30.68668 C 16.738764 30.68668 30.538765 30.68668 30.538765 30.68668 C 30.538765 30.68668 30.538765 21.48668 30.538765 21.48668 C 30.538765 21.48668 30.538765 21.48668 30.538765 21.48668 C 30.538765 20.639843 31.225262 19.953346 32.072098 19.953346 C 32.072098 19.953346 32.072098 19.953346 32.072098 19.953346 C 32.072098 19.953346 38.205433 19.953346 38.205433 19.953346 C 38.205433 19.953346 38.205433 19.953346 38.205433 19.953346 C 39.05227 19.953346 39.738766 20.639843 39.738766 21.48668 C 39.738766 21.48668 39.738766 21.48668 39.738766 21.48668 C 39.738766 22.333517 40.425262 23.020014 41.2721 23.020014 C 41.2721 23.020014 41.2721 23.020014 41.2721 23.020014 C 41.2721 23.020014 47.40543 23.020014 47.40543 23.020014 C 47.40543 23.020014 47.40543 23.020014 47.40543 23.020014 C 54.345387 23.020014 60.4201 27.681307 62.216293 34.38479 C 62.216293 34.38479 62.216293 34.38479 62.216293 34.38479 C 62.216293 34.38479 78.63703 29.650305 78.63703 29.650305 C 78.63703 29.650305 78.63703 29.650305 78.63703 29.650305 Z "/>
                    </g>
                </g>
            </g>
        </g>
    </g>
</svg>
