<svg class="typst-doc" viewBox="0 0 15.795554957734412 16.000920059009893" width="15.795554957734412pt" height="16.000920059009893pt" xmlns="http://www.w3.org/2000/svg" xmlns:xlink="http://www.w3.org/1999/xlink" xmlns:h5="http://www.w3.org/1999/xhtml">
    <g>
        <g transform="translate(2 2)">
            <g class="typst-group">
                <g>
                    <g transform="translate(0 0)">
                        <path class="typst-shape" fill="#2cb4d7" fill-rule="nonzero" d="M 11.795555 4.4475455 C 11.016254 1.5391558 8.20207 -0.34122178 5.2168427 0.05179086 C 5.2168427 0.05179086 5.2168427 0.05179086 5.2168427 0.05179086 C 2.2316155 0.4448035 0.0000000000000008881784 2.9894733 0 6.00046 C 0 6.00046 0 6.00046 0 6.00046 C 0 9.011447 2.2316155 11.556116 5.2168427 11.949129 C 5.2168427 11.949129 5.2168427 11.949129 5.2168427 11.949129 C 5.2168427 11.949129 5.2168427 11.949129 5.2168427 11.949129 C 5.2168427 11.949129 5.2168427 11.949129 5.2168427 11.949129 C 8.20207 12.342142 11.016254 10.461764 11.795555 7.5533743 C 11.795555 7.5533743 11.795555 7.5533743 11.795555 7.5533743 C 11.795555 7.5533743 11.795555 7.5533743 11.795555 7.5533743 C 11.795555 7.5533743 9.477333 6.9322085 9.477333 6.9322085 C 9.477333 6.9322085 9.477333 6.9322085 9.477333 6.9322085 C 9.19619 7.981449 8.245364 8.711043 7.159111 8.711043 C 7.159111 8.711043 7.159111 8.711043 7.159111 8.711043 C 7.159111 8.711043 6.199111 8.711043 6.199111 8.711043 C 6.199111 8.711043 6.199111 8.711043 6.199111 8.711043 C 6.0665627 8.711043 5.959111 8.818495 5.959111 8.951043 C 5.959111 8.951043 5.959111 8.951043 5.959111 8.951043 C 5.959111 8.951043 5.959111 8.951043 5.959111 8.951043 C 5.959111 8.951043 5.959111 8.951043 5.959111 8.951043 C 5.959111 9.083591 5.8516593 9.191043 5.719111 9.191043 C 5.719111 9.191043 5.719111 9.191043 5.719111 9.191043 C 5.719111 9.191043 4.759111 9.191043 4.759111 9.191043 C 4.759111 9.191043 4.759111 9.191043 4.759111 9.191043 C 4.6265626 9.191043 4.519111 9.083591 4.519111 8.951043 C 4.519111 8.951043 4.519111 8.951043 4.519111 8.951043 C 4.519111 8.951043 4.519111 7.751043 4.519111 7.751043 C 4.519111 7.751043 2.359111 7.751043 2.359111 7.751043 C 2.359111 7.751043 2.359111 7.751043 2.359111 7.751043 C 2.0596478 7.3941565 2.0596478 6.873777 2.359111 6.5168905 C 2.359111 6.5168905 2.359111 6.5168905 2.359111 6.5168905 C 2.359111 6.5168905 4.519111 6.5168905 4.519111 6.5168905 C 4.519111 6.5168905 4.519111 5.5088906 4.519111 5.5088906 C 4.519111 5.5088906 2.359111 5.5088906 2.359111 5.5088906 C 2.359111 5.5088906 2.359111 5.5088906 2.359111 5.5088906 C 2.0596478 5.1520042 2.0596478 4.6316247 2.359111 4.2747383 C 2.359111 4.2747383 2.359111 4.2747383 2.359111 4.2747383 C 2.359111 4.2747383 4.519111 4.2747383 4.519111 4.2747383 C 4.519111 4.2747383 4.519111 3.0747385 4.519111 3.0747385 C 4.519111 3.0747385 4.519111 3.0747385 4.519111 3.0747385 C 4.519111 2.9421902 4.6265626 2.8347385 4.759111 2.8347385 C 4.759111 2.8347385 4.759111 2.8347385 4.759111 2.8347385 C 4.759111 2.8347385 5.719111 2.8347385 5.719111 2.8347385 C 5.719111 2.8347385 5.719111 2.8347385 5.719111 2.8347385 C 5.8516593 2.8347385 5.959111 2.9421902 5.959111 3.0747385 C 5.959111 3.0747385 5.959111 3.0747385 5.959111 3.0747385 C 5.959111 3.2072868 6.0665627 3.3147385 6.199111 3.3147385 C 6.199111 3.3147385 6.199111 3.3147385 6.199111 3.3147385 C 6.199111 3.3147385 7.159111 3.3147385 7.159111 3.3147385 C 7.159111 3.3147385 7.159111 3.3147385 7.159111 3.3147385 C 8.245364 3.3147385 9.19619 4.0443325 9.477333 5.0935726 C 9.477333 5.0935726 9.477333 5.0935726 9.477333 5.0935726 C 9.477333 5.0935726 11.795555 4.4475455 11.795555 4.4475455 C 11.795555 4.4475455 11.795555 4.4475455 11.795555 4.4475455 Z "/>
                    </g>
                </g>
            </g>
        </g>
    </g>
</svg>
