<svg class="typst-doc" viewBox="0 0 82.63703305156272 84.00613372673259" width="82.63703305156272pt" height="84.00613372673259pt" xmlns="http://www.w3.org/2000/svg" xmlns:xlink="http://www.w3.org/1999/xlink" xmlns:h5="http://www.w3.org/1999/xhtml">
    <g>
        <g transform="translate(2 2)">
            <g class="typst-group">
                <g>
                    <g transform="translate(0 0)">
                        <path class="typst-shape" fill="#2cb4d7" fill-rule="nonzero" stroke="#1b1b1b" stroke-width="4.4" stroke-linecap="butt" stroke-linejoin="miter" stroke-miterlimit="4" d="M 78.63703 29.650305 C 73.441696 10.261039 54.68047 -2.2748117 34.778954 0.34527242 C 34.778954 0.34527242 34.778954 0.34527242 34.778954 0.34527242 C 14.877437 2.9653566 0.000000000000021316282 19.929821 0 40.003067 C 0 40.003067 0 40.003067 0 40.003067 C -0.000000000000014210855 60.076313 14.877437 77.04078 34.778954 79.66086 C 34.778954 79.66086 34.778954 79.66086 34.778954 79.66086 C 54.68047 82.280945 73.441696 69.745094 78.63703 50.355827 C 78.63703 50.355827 78.63703 50.355827 78.63703 50.355827 C 78.63703 50.355827 78.63703 50.355827 78.63703 50.355827 C 78.63703 50.355827 64.14815 46.47354 64.14815 46.47354 C 64.14815 46.47354 64.14815 46.47354 64.14815 46.47354 C 62.195763 53.759933 55.59281 58.826557 48.04938 58.826557 C 48.04938 58.826557 48.04938 58.826557 48.04938 58.826557 C 48.04938 58.826557 41.382713 58.826557 41.382713 58.826557 C 41.382713 58.826557 41.382713 58.826557 41.382713 58.826557 C 40.462242 58.826557 39.71605 59.57275 39.71605 60.493225 C 39.71605 60.493225 39.71605 60.493225 39.71605 60.493225 C 39.71605 61.4137 38.969856 62.159893 38.04938 62.159893 C 38.04938 62.159893 38.04938 62.159893 38.04938 62.159893 C 38.04938 62.159893 31.382715 62.159893 31.382715 62.159893 C 31.382715 62.159893 31.382715 62.159893 31.382715 62.159893 C 30.46224 62.159893 29.71605 61.4137 29.71605 60.493225 C 29.71605 60.493225 29.71605 60.493225 29.71605 60.493225 C 29.71605 60.493225 29.71605 52.159893 29.71605 52.159893 C 29.71605 52.159893 14.716048 52.159893 14.716048 52.159893 C 14.716048 52.159893 14.716048 52.159893 14.716048 52.159893 C 12.636443 49.681515 12.636443 46.06777 14.716048 43.58939 C 14.716048 43.58939 14.716048 43.58939 14.716048 43.58939 C 14.716048 43.58939 29.71605 43.58939 29.71605 43.58939 C 29.71605 43.58939 29.71605 36.58939 29.71605 36.58939 C 29.71605 36.58939 14.716048 36.58939 14.716048 36.58939 C 14.716048 36.58939 14.716048 36.58939 14.716048 36.58939 C 12.636443 34.111015 12.636443 30.497267 14.716048 28.018888 C 14.716048 28.018888 14.716048 28.018888 14.716048 28.018888 C 14.716048 28.018888 29.71605 28.018888 29.71605 28.018888 C 29.71605 28.018888 29.71605 19.685556 29.71605 19.685556 C 29.71605 19.685556 29.71605 19.685556 29.71605 19.685556 C 29.71605 18.765081 30.46224 18.018888 31.382715 18.018888 C 31.382715 18.018888 31.382715 18.018888 31.382715 18.018888 C 31.382715 18.018888 38.04938 18.018888 38.04938 18.018888 C 38.04938 18.018888 38.04938 18.018888 38.04938 18.018888 C 38.969856 18.018888 39.71605 18.765081 39.71605 19.685556 C 39.71605 19.685556 39.71605 19.685556 39.71605 19.685556 C 39.71605 20.606031 40.462242 21.352222 41.382713 21.352222 C 41.382713 21.352222 41.382713 21.352222 41.382713 21.352222 C 41.382713 21.352222 48.04938 21.352222 48.04938 21.352222 C 48.04938 21.352222 48.04938 21.352222 48.04938 21.352222 C 55.59281 21.352222 62.195763 26.418846 64.14815 33.70524 C 64.14815 33.70524 64.14815 33.70524 64.14815 33.70524 C 64.14815 33.70524 78.63703 29.650305 78.63703 29.650305 C 78.63703 29.650305 78.63703 29.650305 78.63703 29.650305 Z "/>
                    </g>
                </g>
            </g>
        </g>
    </g>
</svg>
