<svg class="typst-doc" viewBox="0 0 82.63703305156272 84.00613372673259" width="82.63703305156272pt" height="84.00613372673259pt" xmlns="http://www.w3.org/2000/svg" xmlns:xlink="http://www.w3.org/1999/xlink" xmlns:h5="http://www.w3.org/1999/xhtml">
    <g>
        <g transform="translate(2 2)">
            <g class="typst-group">
                <g>
                    <g transform="translate(0 0)">
                        <path class="typst-shape" fill="#2cb4d7" fill-rule="nonzero" d="M 78.63703 29.650305 C 73.441696 10.261039 54.68047 -2.2748117 34.778954 0.34527242 C 34.778954 0.34527242 34.778954 0.34527242 34.778954 0.34527242 C 14.877437 2.9653566 0.000000000000021316282 19.929821 0 40.003067 C 0 40.003067 0 40.003067 0 40.003067 C -0.000000000000014210855 60.076313 14.877437 77.04078 34.778954 79.66086 C 34.778954 79.66086 34.778954 79.66086 34.778954 79.66086 C 54.68047 82.280945 73.441696 69.745094 78.63703 50.355827 C 78.63703 50.355827 78.63703 50.355827 78.63703 50.355827 C 78.63703 50.355827 78.63703 50.355827 78.63703 50.355827 C 78.63703 50.355827 62.216293 45.955906 62.216293 45.955906 C 62.216293 45.955906 62.216293 45.955906 62.216293 45.955906 C 60.4201 52.659386 54.345387 57.32068 47.40543 57.32068 C 47.40543 57.32068 47.40543 57.32068 47.40543 57.32068 C 47.40543 57.32068 41.2721 57.32068 41.2721 57.32068 C 41.2721 57.32068 41.2721 57.32068 41.2721 57.32068 C 40.425262 57.32068 39.738766 58.007175 39.738766 58.85401 C 39.738766 58.85401 39.738766 58.85401 39.738766 58.85401 C 39.738766 59.700848 39.05227 60.387344 38.205433 60.387344 C 38.205433 60.387344 38.205433 60.387344 38.205433 60.387344 C 38.205433 60.387344 32.072098 60.387344 32.072098 60.387344 C 32.072098 60.387344 32.072098 60.387344 32.072098 60.387344 C 31.225262 60.387344 30.538765 59.700848 30.538765 58.85401 C 30.538765 58.85401 30.538765 58.85401 30.538765 58.85401 C 30.538765 58.85401 30.538765 51.187347 30.538765 51.187347 C 30.538765 51.187347 16.738764 51.187347 16.738764 51.187347 C 16.738764 51.187347 16.738764 51.187347 16.738764 51.187347 C 14.825528 48.907238 14.825528 45.582592 16.738764 43.302486 C 16.738764 43.302486 16.738764 43.302486 16.738764 43.302486 C 16.738764 43.302486 30.538765 43.302486 30.538765 43.302486 C 30.538765 43.302486 30.538765 36.862484 30.538765 36.862484 C 30.538765 36.862484 16.738764 36.862484 16.738764 36.862484 C 16.738764 36.862484 16.738764 36.862484 16.738764 36.862484 C 14.825528 34.58238 14.825528 31.25773 16.738764 28.977623 C 16.738764 28.977623 16.738764 28.977623 16.738764 28.977623 C 16.738764 28.977623 30.538765 28.977623 30.538765 28.977623 C 30.538765 28.977623 30.538765 21.310957 30.538765 21.310957 C 30.538765 21.310957 30.538765 21.310957 30.538765 21.310957 C 30.538765 20.46412 31.225262 19.777624 32.072098 19.777624 C 32.072098 19.777624 32.072098 19.777624 32.072098 19.777624 C 32.072098 19.777624 38.205433 19.777624 38.205433 19.777624 C 38.205433 19.777624 38.205433 19.777624 38.205433 19.777624 C 39.05227 19.777624 39.738766 20.46412 39.738766 21.310957 C 39.738766 21.310957 39.738766 21.310957 39.738766 21.310957 C 39.738766 22.157793 40.425262 22.84429 41.2721 22.84429 C 41.2721 22.84429 41.2721 22.84429 41.2721 22.84429 C 41.2721 22.84429 47.40543 22.84429 47.40543 22.84429 C 47.40543 22.84429 47.40543 22.84429 47.40543 22.84429 C 54.345387 22.84429 60.4201 27.505585 62.216293 34.209064 C 62.216293 34.209064 62.216293 34.209064 62.216293 34.209064 C 62.216293 34.209064 78.63703 29.650305 78.63703 29.650305 C 78.63703 29.650305 78.63703 29.650305 78.63703 29.650305 Z "/>
                    </g>
                </g>
            </g>
        </g>
    </g>
</svg>
