<svg class="typst-doc" viewBox="0 0 15.795554957734412 16.000920059009893" width="15.795554957734412pt" height="16.000920059009893pt" xmlns="http://www.w3.org/2000/svg" xmlns:xlink="http://www.w3.org/1999/xlink" xmlns:h5="http://www.w3.org/1999/xhtml">
    <g>
        <g transform="translate(2 2)">
            <g class="typst-group">
                <g>
                    <g transform="translate(0 0)">
                        <path class="typst-shape" fill="#2cb4d7" fill-rule="nonzero" stroke="#303030" stroke-width="0.6" stroke-linecap="butt" stroke-linejoin="miter" stroke-miterlimit="4" d="M 11.795555 4.4475455 C 11.016254 1.5391558 8.20207 -0.34122178 5.2168427 0.05179086 C 5.2168427 0.05179086 5.2168427 0.05179086 5.2168427 0.05179086 C 2.2316155 0.4448035 0.0000000000000008881784 2.9894733 0 6.00046 C 0 6.00046 0 6.00046 0 6.00046 C 0 9.011447 2.2316155 11.556116 5.2168427 11.949129 C 5.2168427 11.949129 5.2168427 11.949129 5.2168427 11.949129 C 5.2168427 11.949129 5.2168427 11.949129 5.2168427 11.949129 C 5.2168427 11.949129 5.2168427 11.949129 5.2168427 11.949129 C 8.20207 12.342142 11.016254 10.461764 11.795555 7.5533743 C 11.795555 7.5533743 11.795555 7.5533743 11.795555 7.5533743 C 11.795555 7.5533743 11.795555 7.5533743 11.795555 7.5533743 C 11.795555 7.5533743 9.767111 7.0098543 9.767111 7.0098543 C 9.767111 7.0098543 9.767111 7.0098543 9.767111 7.0098543 C 9.462539 8.146531 8.432478 8.936925 7.2557034 8.936925 C 7.2557034 8.936925 7.2557034 8.936925 7.2557034 8.936925 C 7.2557034 8.936925 6.2157035 8.936925 6.2157035 8.936925 C 6.2157035 8.936925 6.2157035 8.936925 6.2157035 8.936925 C 6.0721097 8.936925 5.9557037 9.05333 5.9557037 9.196925 C 5.9557037 9.196925 5.9557037 9.196925 5.9557037 9.196925 C 5.9557037 9.196925 5.9557037 9.196925 5.9557037 9.196925 C 5.9557037 9.196925 5.9557037 9.196925 5.9557037 9.196925 C 5.9557037 9.340519 5.839298 9.456924 5.6957035 9.456924 C 5.6957035 9.456924 5.6957035 9.456924 5.6957035 9.456924 C 5.6957035 9.456924 4.6557035 9.456924 4.6557035 9.456924 C 4.6557035 9.456924 4.6557035 9.456924 4.6557035 9.456924 C 4.5121098 9.456924 4.395704 9.340519 4.395704 9.196925 C 4.395704 9.196925 4.395704 9.196925 4.395704 9.196925 C 4.395704 9.196925 4.395704 7.896925 4.395704 7.896925 C 4.395704 7.896925 2.0557036 7.896925 2.0557036 7.896925 C 2.0557036 7.896925 2.0557036 7.896925 2.0557036 7.896925 C 1.7312852 7.5102983 1.7312852 6.946553 2.0557036 6.5599265 C 2.0557036 6.5599265 2.0557036 6.5599265 2.0557036 6.5599265 C 2.0557036 6.5599265 4.395704 6.5599265 4.395704 6.5599265 C 4.395704 6.5599265 4.395704 5.4679265 4.395704 5.4679265 C 4.395704 5.4679265 2.0557036 5.4679265 2.0557036 5.4679265 C 2.0557036 5.4679265 2.0557036 5.4679265 2.0557036 5.4679265 C 1.7312852 5.0813 1.7312852 4.517555 2.0557036 4.1309285 C 2.0557036 4.1309285 2.0557036 4.1309285 2.0557036 4.1309285 C 2.0557036 4.1309285 4.395704 4.1309285 4.395704 4.1309285 C 4.395704 4.1309285 4.395704 2.8309283 4.395704 2.8309283 C 4.395704 2.8309283 4.395704 2.8309283 4.395704 2.8309283 C 4.395704 2.6873343 4.5121098 2.5709283 4.6557035 2.5709283 C 4.6557035 2.5709283 4.6557035 2.5709283 4.6557035 2.5709283 C 4.6557035 2.5709283 5.6957035 2.5709283 5.6957035 2.5709283 C 5.6957035 2.5709283 5.6957035 2.5709283 5.6957035 2.5709283 C 5.839298 2.5709283 5.9557037 2.6873343 5.9557037 2.8309283 C 5.9557037 2.8309283 5.9557037 2.8309283 5.9557037 2.8309283 C 5.9557037 2.9745224 6.0721097 3.0909283 6.2157035 3.0909283 C 6.2157035 3.0909283 6.2157035 3.0909283 6.2157035 3.0909283 C 6.2157035 3.0909283 7.2557034 3.0909283 7.2557034 3.0909283 C 7.2557034 3.0909283 7.2557034 3.0909283 7.2557034 3.0909283 C 8.432478 3.0909283 9.462539 3.8813217 9.767111 5.0179987 C 9.767111 5.0179987 9.767111 5.0179987 9.767111 5.0179987 C 9.767111 5.0179987 11.795555 4.4475455 11.795555 4.4475455 C 11.795555 4.4475455 11.795555 4.4475455 11.795555 4.4475455 Z "/>
                    </g>
                </g>
            </g>
        </g>
    </g>
</svg>
