<svg class="typst-doc" viewBox="0 0 82.63703305156272 84.00613372673259" width="82.63703305156272pt" height="84.00613372673259pt" xmlns="http://www.w3.org/2000/svg" xmlns:xlink="http://www.w3.org/1999/xlink" xmlns:h5="http://www.w3.org/1999/xhtml">
    <g>
        <g transform="translate(2 2)">
            <g class="typst-group">
                <g>
                    <g transform="translate(0 0)">
                        <path class="typst-shape" fill="none" stroke="#1b1b1b" stroke-width="4.4" stroke-linecap="butt" stroke-linejoin="miter" stroke-miterlimit="4" d="M 78.63703 29.650305 C 73.441696 10.261039 54.68047 -2.2748117 34.778954 0.34527242 C 34.778954 0.34527242 34.778954 0.34527242 34.778954 0.34527242 C 14.877437 2.9653566 0.000000000000021316282 19.929821 0 40.003067 C 0 40.003067 0 40.003067 0 40.003067 C -0.000000000000014210855 60.076313 14.877437 77.04078 34.778954 79.66086 C 34.778954 79.66086 34.778954 79.66086 34.778954 79.66086 C 54.68047 82.280945 73.441696 69.745094 78.63703 50.355827 C 78.63703 50.355827 78.63703 50.355827 78.63703 50.355827 C 78.63703 50.355827 78.63703 50.355827 78.63703 50.355827 C 78.63703 50.355827 62.216293 45.955906 62.216293 45.955906 C 62.216293 45.955906 62.216293 45.955906 62.216293 45.955906 C 60.4201 52.659386 54.345387 57.32068 47.40543 57.32068 C 47.40543 57.32068 47.40543 57.32068 47.40543 57.32068 C 47.40543 57.32068 41.2721 57.32068 41.2721 57.32068 C 41.2721 57.32068 41.2721 57.32068 41.2721 57.32068 C 40.425262 57.32068 39.738766 58.007175 39.738766 58.85401 C 39.738766 58.85401 39.738766 58.85401 39.738766 58.85401 C 39.738766 59.700848 39.05227 60.387344 38.205433 60.387344 C 38.205433 60.387344 38.205433 60.387344 38.205433 60.387344 C 38.205433 60.387344 32.072098 60.387344 32.072098 60.387344 C 32.072098 60.387344 32.072098 60.387344 32.072098 60.387344 C 31.225262 60.387344 30.538765 59.700848 30.538765 58.85401 C 30.538765 58.85401 30.538765 58.85401 30.538765 58.85401 C 30.538765 58.85401 30.538765 49.654015 30.538765 49.654015 C 30.538765 49.654015 16.738764 49.654015 16.738764 49.654015 C 16.738764 49.654015 16.738764 49.654015 16.738764 49.654015 C 15.303837 47.94393 15.303837 45.450447 16.738764 43.740368 C 16.738764 43.740368 16.738764 43.740368 16.738764 43.740368 C 16.738764 43.740368 30.538765 43.740368 30.538765 43.740368 C 30.538765 43.740368 30.538765 36.380367 30.538765 36.380367 C 30.538765 36.380367 16.738764 36.380367 16.738764 36.380367 C 16.738764 36.380367 16.738764 36.380367 16.738764 36.380367 C 15.303837 34.670288 15.303837 32.1768 16.738764 30.46672 C 16.738764 30.46672 16.738764 30.46672 16.738764 30.46672 C 16.738764 30.46672 30.538765 30.46672 30.538765 30.46672 C 30.538765 30.46672 30.538765 21.266722 30.538765 21.266722 C 30.538765 21.266722 30.538765 21.266722 30.538765 21.266722 C 30.538765 20.419884 31.225262 19.733387 32.072098 19.733387 C 32.072098 19.733387 32.072098 19.733387 32.072098 19.733387 C 32.072098 19.733387 38.205433 19.733387 38.205433 19.733387 C 38.205433 19.733387 38.205433 19.733387 38.205433 19.733387 C 39.05227 19.733387 39.738766 20.419884 39.738766 21.266722 C 39.738766 21.266722 39.738766 21.266722 39.738766 21.266722 C 39.738766 22.113558 40.425262 22.800055 41.2721 22.800055 C 41.2721 22.800055 41.2721 22.800055 41.2721 22.800055 C 41.2721 22.800055 47.40543 22.800055 47.40543 22.800055 C 47.40543 22.800055 47.40543 22.800055 47.40543 22.800055 C 54.345387 22.800055 60.4201 27.461348 62.216293 34.16483 C 62.216293 34.16483 62.216293 34.16483 62.216293 34.16483 C 62.216293 34.16483 78.63703 29.650305 78.63703 29.650305 C 78.63703 29.650305 78.63703 29.650305 78.63703 29.650305 Z "/>
                    </g>
                </g>
            </g>
        </g>
    </g>
</svg>
