<svg class="typst-doc" viewBox="0 0 100.63703305156272 102.00613372673259" width="100.63703305156272pt" height="102.00613372673259pt" xmlns="http://www.w3.org/2000/svg" xmlns:xlink="http://www.w3.org/1999/xlink" xmlns:h5="http://www.w3.org/1999/xhtml">
    <g>
        <g transform="translate(11 11)">
            <g class="typst-group">
                <g>
                    <g transform="translate(0 0)">
                        <path class="typst-shape" fill="none" stroke="#303030" stroke-width="4" stroke-linecap="butt" stroke-linejoin="miter" stroke-miterlimit="4" d="M 78.63703 29.650305 C 73.441696 10.261039 54.68047 -2.2748117 34.778954 0.34527242 C 34.778954 0.34527242 34.778954 0.34527242 34.778954 0.34527242 C 14.877437 2.9653566 0.000000000000021316282 19.929821 0 40.003067 C 0 40.003067 0 40.003067 0 40.003067 C -0.000000000000014210855 60.076313 14.877437 77.04078 34.778954 79.66086 C 34.778954 79.66086 34.778954 79.66086 34.778954 79.66086 C 54.68047 82.280945 73.441696 69.745094 78.63703 50.355827 C 78.63703 50.355827 78.63703 50.355827 78.63703 50.355827 C 78.63703 50.355827 78.63703 50.355827 78.63703 50.355827 C 78.63703 50.355827 65.114075 46.73236 65.114075 46.73236 C 65.114075 46.73236 65.114075 46.73236 65.114075 46.73236 C 63.08359 54.31021 56.216522 59.5795 48.371357 59.5795 C 48.371357 59.5795 48.371357 59.5795 48.371357 59.5795 C 48.371357 59.5795 41.438023 59.5795 41.438023 59.5795 C 41.438023 59.5795 41.438023 59.5795 41.438023 59.5795 C 40.480732 59.5795 39.70469 60.355537 39.70469 61.31283 C 39.70469 61.31283 39.70469 61.31283 39.70469 61.31283 C 39.70469 62.270126 38.92865 63.046165 37.971355 63.046165 C 37.971355 63.046165 37.971355 63.046165 37.971355 63.046165 C 37.971355 63.046165 31.038023 63.046165 31.038023 63.046165 C 31.038023 63.046165 31.038023 63.046165 31.038023 63.046165 C 30.08073 63.046165 29.304691 62.270126 29.304691 61.31283 C 29.304691 61.31283 29.304691 61.31283 29.304691 61.31283 C 29.304691 61.31283 29.304691 52.646164 29.304691 52.646164 C 29.304691 52.646164 13.704691 52.646164 13.704691 52.646164 C 13.704691 52.646164 13.704691 52.646164 13.704691 52.646164 C 11.541902 50.068653 11.541902 46.310356 13.704691 43.732845 C 13.704691 43.732845 13.704691 43.732845 13.704691 43.732845 C 13.704691 43.732845 29.304691 43.732845 29.304691 43.732845 C 29.304691 43.732845 29.304691 36.452843 29.304691 36.452843 C 29.304691 36.452843 13.704691 36.452843 13.704691 36.452843 C 13.704691 36.452843 13.704691 36.452843 13.704691 36.452843 C 11.541902 33.87533 11.541902 30.117033 13.704691 27.539522 C 13.704691 27.539522 13.704691 27.539522 13.704691 27.539522 C 13.704691 27.539522 29.304691 27.539522 29.304691 27.539522 C 29.304691 27.539522 29.304691 18.872856 29.304691 18.872856 C 29.304691 18.872856 29.304691 18.872856 29.304691 18.872856 C 29.304691 17.915562 30.08073 17.139523 31.038023 17.139523 C 31.038023 17.139523 31.038023 17.139523 31.038023 17.139523 C 31.038023 17.139523 37.971355 17.139523 37.971355 17.139523 C 37.971355 17.139523 37.971355 17.139523 37.971355 17.139523 C 38.92865 17.139523 39.70469 17.915562 39.70469 18.872856 C 39.70469 18.872856 39.70469 18.872856 39.70469 18.872856 C 39.70469 19.830149 40.480732 20.60619 41.438023 20.60619 C 41.438023 20.60619 41.438023 20.60619 41.438023 20.60619 C 41.438023 20.60619 48.371357 20.60619 48.371357 20.60619 C 48.371357 20.60619 48.371357 20.60619 48.371357 20.60619 C 56.216522 20.60619 63.08359 25.875479 65.114075 33.453327 C 65.114075 33.453327 65.114075 33.453327 65.114075 33.453327 C 65.114075 33.453327 78.63703 29.650305 78.63703 29.650305 C 78.63703 29.650305 78.63703 29.650305 78.63703 29.650305 Z "/>
                    </g>
                </g>
            </g>
        </g>
    </g>
</svg>
